<?xml version="1.0" standalone="no"?>
<!DOCTYPE svg PUBLIC "-//W3C//DTD SVG 20010904//EN"
 "http://www.w3.org/TR/2001/REC-SVG-20010904/DTD/svg10.dtd">
<svg version="1.0" xmlns="http://www.w3.org/2000/svg"
 width="883.000000pt" height="883.000000pt" viewBox="0 0 883.000000 883.000000"
 preserveAspectRatio="xMidYMid meet">
<metadata>
Created by potrace 1.14, written by Peter Selinger 2001-2017
</metadata>
<g transform="translate(0.000000,883.000000) scale(0.100000,-0.100000)"
fill="#000000" stroke="none">
<path d="M4108 8435 c-2 -1 -39 -5 -83 -8 -281 -20 -713 -124 -1020 -244 -166
-65 -468 -210 -577 -276 -43 -26 -82 -47 -87 -47 -6 0 -15 -9 -21 -20 -12 -23
-86 -64 -100 -55 -4 3 -20 1 -35 -5 -20 -8 -25 -15 -20 -30 5 -15 -3 -25 -37
-46 -24 -15 -61 -42 -83 -60 -23 -18 -52 -39 -66 -46 -110 -58 -496 -432 -674
-653 -22 -27 -50 -59 -63 -70 -13 -11 -33 -37 -45 -57 -12 -21 -63 -97 -113
-170 -279 -407 -472 -847 -588 -1338 -37 -158 -44 -196 -72 -395 -22 -156 -26
-788 -6 -935 12 -84 55 -341 66 -395 44 -204 147 -517 237 -716 21 -47 39
-101 39 -119 0 -30 -22 -85 -106 -268 -19 -41 -34 -75 -34 -77 0 -2 -16 -37
-34 -78 -81 -174 -129 -332 -155 -504 -13 -87 -14 -371 -1 -468 12 -94 71
-294 111 -380 141 -299 373 -531 645 -645 247 -103 601 -145 919 -110 323 36
660 165 915 350 36 26 73 50 84 54 10 3 61 -7 115 -23 255 -77 527 -138 701
-156 30 -3 71 -8 90 -10 134 -17 499 -24 665 -11 44 3 121 8 170 11 50 4 104
10 120 15 17 5 95 21 175 36 445 82 864 242 1300 495 159 92 509 352 638 473
24 23 48 41 55 41 7 0 14 5 17 11 3 6 64 74 137 150 283 299 444 519 681 929
6 11 25 49 41 85 16 36 49 108 73 160 25 52 51 113 58 135 7 22 17 45 22 51
27 35 156 484 192 673 57 291 69 521 56 1036 -5 218 -48 459 -144 805 -124
450 -402 984 -714 1373 -130 162 -331 375 -482 513 -121 109 -482 380 -585
438 -16 10 -48 28 -70 42 -37 22 -450 229 -520 259 -109 49 -415 145 -595 188
-108 26 -369 71 -475 83 -56 6 -711 14 -717 9z"/>
</g>
</svg>
